<svg width="806" height="1318" viewBox="0 0 806 1318" fill="none" xmlns="http://www.w3.org/2000/svg">
<path opacity="0.1" d="M430.966 969.491L401.234 853.476L456.123 664.821L526.251 938.481C525.102 940.993 523.932 943.398 522.761 945.675C529.082 933.416 534.999 917.836 540.149 897.915L756.217 227.748L699.263 403.91L622.963 106.796C615.641 120.119 608.894 137.273 603.212 159.28L294.881 1218.95C294.881 1218.95 272.746 1310.17 195.339 1316.64C176.865 1318.2 158.476 1314.68 141.961 1306.3C123.402 1296.89 98.8833 1278.37 88.1566 1243.66L3.10859 904.236C0.895128 893.659 0.19278 887.423 2.12956 879.122L165.181 393.204C165.181 393.204 192.189 279.807 275.215 275.529C291.476 274.678 307.736 278.488 322.187 285.958C340.321 295.323 364.328 313.796 375.055 348.509L404.979 465.312L350.026 653.754L279.749 379.519C274.726 390.544 270.043 403.846 265.851 420.064L106.737 914.091L183.016 1211.1C182.846 1211.38 182.697 1211.61 182.548 1211.89C190.103 1198.39 197.063 1180.96 202.895 1158.36L508.416 110.52C508.416 110.52 533.786 4.10393 616.599 1.06042C633.008 0.464491 649.375 4.29548 664.018 11.7233C682.577 21.1305 707.095 39.647 717.822 74.3599L802.87 413.785H802.891C805.105 424.363 805.807 430.599 803.871 438.899L640.841 924.796C640.841 924.796 613.832 1038.19 530.806 1042.47C514.546 1043.32 498.285 1039.51 483.834 1032.04C465.701 1022.68 441.693 1004.2 430.966 969.491ZM430.966 969.491C430.966 969.491 431.03 969.555 431.094 969.619M374.331 347.892C374.182 347.765 374.012 347.616 373.821 347.467M287.006 365.493C285.814 367.515 284.622 369.644 283.452 371.9M622.941 106.774C622.941 106.774 642.607 69.6351 669.956 65.2933C697.305 60.9515 717.822 74.1897 717.822 74.1897M88.9015 1244.13C88.9015 1244.13 114.973 1260.71 141.556 1251.32C168.139 1241.94 183.016 1211.12 183.016 1211.12M369.394 344.083C355.262 334.165 317.271 314.776 287.198 365.174C317.292 314.754 355.283 334.143 369.394 344.083ZM374.864 348.339C374.864 348.339 374.736 348.211 374.672 348.169C374.736 348.233 374.821 348.297 374.864 348.339ZM373.501 347.19C373.267 346.998 373.012 346.786 372.714 346.573C372.991 346.807 373.267 346.998 373.501 347.19ZM372.352 346.275C372.033 346.019 371.671 345.743 371.288 345.466C371.671 345.764 372.012 346.019 372.352 346.275ZM370.947 345.211C370.522 344.891 370.054 344.551 369.564 344.21C370.054 344.572 370.522 344.891 370.947 345.211ZM283.239 372.325C282.068 374.603 280.898 377.008 279.749 379.54C280.898 377.008 282.068 374.624 283.239 372.325ZM436.564 973.896C450.675 983.793 488.686 1003.25 518.781 952.847C488.665 1003.29 450.653 983.836 436.564 973.896ZM431.115 969.661C431.115 969.661 431.307 969.831 431.392 969.917C431.286 969.81 431.179 969.725 431.115 969.661ZM431.626 970.108C431.775 970.236 431.967 970.406 432.179 970.576C431.967 970.406 431.775 970.257 431.626 970.108ZM432.477 970.81C432.711 971.002 432.988 971.236 433.286 971.449C432.988 971.215 432.733 971.002 432.477 970.81ZM433.627 971.726C433.946 971.981 434.308 972.258 434.691 972.534C434.308 972.236 433.967 971.981 433.627 971.726ZM435.031 972.79C435.478 973.109 435.925 973.449 436.436 973.811C435.925 973.449 435.478 973.13 435.031 972.79ZM522.506 946.143C521.335 948.378 520.164 950.506 518.951 952.528C520.143 950.506 521.335 948.378 522.506 946.143Z" stroke="#392AB0" stroke-width="2" stroke-miterlimit="10"/>
</svg>
